<svg width="1024" height="1024" viewBox="0 0 1024 1024" fill="none" xmlns="http://www.w3.org/2000/svg">
<g clip-path="url(#clip0_128_66746)">
<mask id="mask0_128_66746" style="mask-type:alpha" maskUnits="userSpaceOnUse" x="0" y="0" width="1024" height="1024">
<path d="M1024 238.934C1024 106.974 917.026 0 785.066 0L238.934 0C106.974 0 0 106.974 0 238.934L0 785.066C0 917.026 106.974 1024 238.934 1024L785.066 1024C917.026 1024 1024 917.026 1024 785.066L1024 238.934ZM682.667 580.267C682.667 636.821 636.821 682.667 580.267 682.667L443.733 682.667C387.179 682.667 341.333 636.821 341.333 580.267V443.733C341.333 387.179 387.179 341.333 443.733 341.333H580.267C636.821 341.333 682.667 387.179 682.667 443.733L682.667 580.267Z" fill="#D9D9D9"/>
</mask>
<g mask="url(#mask0_128_66746)">
<circle cx="512" cy="512" r="512" transform="matrix(1 0 0 -1 0 1024)" fill="url(#paint0_linear_128_66746)"/>
<circle cx="512" cy="512" r="512" transform="matrix(0.707107 -0.707107 -0.707107 -0.707107 1007.08 724.156)" fill="url(#paint1_linear_128_66746)"/>
<circle cx="512" cy="512" r="512" transform="matrix(0.707107 -0.707107 -0.707107 -0.707107 10.0781 1741.16)" fill="url(#paint2_linear_128_66746)"/>
</g>
</g>
<defs>
<linearGradient id="paint0_linear_128_66746" x1="667.227" y1="41.8827" x2="888.52" y2="792.614" gradientUnits="userSpaceOnUse">
<stop stop-color="#E9FF7E"/>
<stop offset="1" stop-color="#7A75FF"/>
</linearGradient>
<linearGradient id="paint1_linear_128_66746" x1="667.227" y1="41.8827" x2="888.52" y2="792.614" gradientUnits="userSpaceOnUse">
<stop stop-color="#E9FF7E"/>
<stop offset="1" stop-color="#7D79FC" stop-opacity="0.5"/>
</linearGradient>
<linearGradient id="paint2_linear_128_66746" x1="667.227" y1="41.8827" x2="888.52" y2="792.614" gradientUnits="userSpaceOnUse">
<stop stop-color="#E9FF7E"/>
<stop offset="1" stop-color="#7B76FF" stop-opacity="0.5"/>
</linearGradient>
<clipPath id="clip0_128_66746">
<rect width="1024" height="1024" fill="white" transform="matrix(0 -1 -1 0 1024 1024)"/>
</clipPath>
</defs>
</svg>
